<svg xmlns="http://www.w3.org/2000/svg" viewBox="0 0 1200 630" width="1200" height="630" role="img" aria-label="GUTSU — Equipment & AI">
  <rect width="1200" height="630" fill="#08090C"/>
  <svg x="0" y="165" width="1200" height="300" viewBox="0 0 2000 500" preserveAspectRatio="xMidYMid meet"><rect width="2000" height="500" fill="#08090C"/><g transform="translate(514.701 250) scale(0.403)"><path d="M108.98 -155.639A60 60 0 0 0 177.809 -253.937A310 310 0 1 0 310 0A60 60 0 0 0 250 -60L45 -60A60 60 0 0 0 45 60L180.278 60A190 190 0 1 1 108.98 -155.639Z" fill="#F5F3F0"/><circle cx="250" cy="-130.142" r="36" fill="#F44C43"/></g><path transform="translate(695.655 298.387)" d="M72.478 -65.889Q69.87 -70.693 64.997 -73.233Q60.124 -75.772 53.535 -75.772Q42.141 -75.772 35.278 -68.291Q28.415 -60.81 28.415 -48.318Q28.415 -35.003 35.621 -27.522Q42.828 -20.041 55.456 -20.041Q64.104 -20.041 70.075 -24.434Q76.047 -28.826 78.792 -37.062H49.005V-54.358H100.069V-32.533Q97.461 -23.747 91.215 -16.198Q84.969 -8.648 75.36 -3.981Q65.752 0.686 53.672 0.686Q39.396 0.686 28.209 -5.559Q17.021 -11.805 10.776 -22.924Q4.53 -34.043 4.53 -48.318Q4.53 -62.594 10.776 -73.782Q17.021 -84.969 28.14 -91.215Q39.259 -97.461 53.535 -97.461Q70.83 -97.461 82.704 -89.087Q94.578 -80.714 98.421 -65.889ZM135.072 -96.362V-38.71Q135.072 -30.062 139.327 -25.395Q143.583 -20.728 151.819 -20.728Q160.055 -20.728 164.447 -25.395Q168.84 -30.062 168.84 -38.71V-96.362H192.313V-38.847Q192.313 -25.944 186.822 -17.021Q181.332 -8.099 172.066 -3.569Q162.8 0.961 151.407 0.961Q140.014 0.961 131.023 -3.5Q122.032 -7.962 116.815 -16.953Q111.599 -25.944 111.599 -38.847V-96.362ZM278.929 -96.362V-77.557H253.397V0H229.925V-77.557H204.393V-96.362ZM289.636 -28.826H314.619Q315.168 -23.473 318.325 -20.659Q321.482 -17.845 326.561 -17.845Q331.778 -17.845 334.798 -20.247Q337.817 -22.649 337.817 -26.905Q337.817 -30.474 335.415 -32.807Q333.013 -35.141 329.513 -36.651Q326.012 -38.161 319.561 -40.082Q310.226 -42.965 304.324 -45.848Q298.421 -48.73 294.166 -54.358Q289.911 -59.986 289.911 -69.046Q289.911 -82.498 299.657 -90.117Q309.403 -97.735 325.051 -97.735Q340.975 -97.735 350.721 -90.117Q360.467 -82.498 361.153 -68.909H335.758Q335.484 -73.576 332.327 -76.253Q329.17 -78.929 324.228 -78.929Q319.973 -78.929 317.364 -76.664Q314.756 -74.399 314.756 -70.144Q314.756 -65.477 319.149 -62.869Q323.542 -60.261 332.876 -57.241Q342.21 -54.084 348.044 -51.201Q353.878 -48.318 358.133 -42.828Q362.388 -37.337 362.388 -28.689Q362.388 -20.453 358.202 -13.727Q354.015 -7.001 346.054 -3.02Q338.092 0.961 327.248 0.961Q316.678 0.961 308.305 -2.471Q299.931 -5.903 294.921 -12.629Q289.911 -19.355 289.636 -28.826ZM399.863 -96.362V-38.71Q399.863 -30.062 404.118 -25.395Q408.373 -20.728 416.609 -20.728Q424.846 -20.728 429.238 -25.395Q433.631 -30.062 433.631 -38.71V-96.362H457.104V-38.847Q457.104 -25.944 451.613 -17.021Q446.122 -8.099 436.857 -3.569Q427.591 0.961 416.198 0.961Q404.804 0.961 395.813 -3.5Q386.822 -7.962 381.606 -16.953Q376.39 -25.944 376.39 -38.847V-96.362Z" fill="#F5F3F0"/><path transform="translate(1189.372 298.387)" d="M7.903 -25.788H21.351Q22.045 -18.994 26.966 -14.35Q31.888 -9.705 41.316 -9.705Q50.328 -9.705 55.527 -14.211Q60.726 -18.717 60.726 -25.788Q60.726 -31.334 57.676 -34.8Q54.626 -38.266 50.051 -40.068Q45.476 -41.871 37.711 -43.95Q28.145 -46.446 22.391 -48.942Q16.637 -51.437 12.547 -56.775Q8.457 -62.113 8.457 -71.125Q8.457 -79.028 12.478 -85.128Q16.499 -91.228 23.778 -94.556Q31.056 -97.883 40.484 -97.883Q54.072 -97.883 62.737 -91.09Q71.402 -84.296 72.511 -73.066H58.647Q57.954 -78.612 52.824 -82.84Q47.694 -87.069 39.237 -87.069Q31.334 -87.069 26.343 -82.979Q21.351 -78.889 21.351 -71.541Q21.351 -66.272 24.332 -62.945Q27.313 -59.617 31.68 -57.884Q36.048 -56.151 43.95 -53.933Q53.517 -51.299 59.34 -48.734Q65.163 -46.169 69.322 -40.831Q73.482 -35.493 73.482 -26.343Q73.482 -19.272 69.738 -13.033Q65.995 -6.794 58.647 -2.912Q51.299 0.971 41.316 0.971Q31.75 0.971 24.194 -2.426Q16.637 -5.823 12.339 -11.854Q8.041 -17.885 7.903 -25.788ZM121.176 -40.346H102.597V0H89.981V-96.636H121.176Q137.536 -96.636 146.062 -88.733Q154.589 -80.83 154.589 -68.352Q154.589 -56.29 146.34 -48.318Q138.09 -40.346 121.176 -40.346ZM141.695 -68.352Q141.695 -86.237 121.176 -86.237H102.597V-50.744H121.176Q131.713 -50.744 136.704 -55.319Q141.695 -59.895 141.695 -68.352ZM227.655 -21.49H185.507L177.743 0H164.433L199.371 -96.081H213.929L248.729 0H235.419ZM224.05 -31.75 206.581 -80.553 189.112 -31.75ZM308.624 -97.883Q324.429 -97.883 336.214 -90.258Q347.999 -82.632 353.406 -68.629H338.294Q334.273 -77.364 326.717 -82.078Q319.161 -86.792 308.624 -86.792Q298.503 -86.792 290.461 -82.078Q282.42 -77.364 277.845 -68.699Q273.269 -60.033 273.269 -48.387Q273.269 -36.88 277.845 -28.214Q282.42 -19.549 290.461 -14.835Q298.503 -10.121 308.624 -10.121Q319.161 -10.121 326.717 -14.766Q334.273 -19.41 338.294 -28.145H353.406Q347.999 -14.28 336.214 -6.724Q324.429 0.832 308.624 0.832Q295.175 0.832 284.153 -5.476Q273.131 -11.785 266.753 -23.015Q260.375 -34.245 260.375 -48.387Q260.375 -62.529 266.753 -73.828Q273.131 -85.128 284.153 -91.506Q295.175 -97.883 308.624 -97.883ZM381.551 -86.376V-54.072H416.767V-43.673H381.551V-10.398H420.926V0H368.934V-96.774H420.926V-86.376Z" fill="#F5F3F0"/></svg>
  <text x="600" y="520" text-anchor="middle" fill="#97A0A8" font-family="Arial, sans-serif" font-size="22" letter-spacing="5">EQUIPMENT / AI</text>
</svg>